<?xml version="1.0" encoding="UTF-8" standalone="no"?>
<svg xmlns="http://www.w3.org/2000/svg" version="1.1" viewBox="0 0 239 94">
   <circle cx="189.0" cy="77.0" fill="rgb(0, 210, 0)" r="5.0" stroke="none" stroke-width="3.0"/>
   <rect fill="none" height="18" stroke="rgb(0, 0, 0)" stroke-linecap="square" stroke-width="2.0" width="18" x="31" y="29"/>
   <ellipse cx="39.0" cy="37.0" fill="rgb(0, 100, 0)" rx="5.5" ry="6.5" stroke="none" stroke-width="2.0"/>
   <text fill="rgb(255, 255, 255)" font-family="Monospaced" font-size="12" x="36.0" y="42.0">0</text>
   <text fill="rgb(0, 0, 255)" font-family="Monospaced" font-size="16" font-weight="bold" x="33.0" y="21.0">A</text>
   <circle cx="39.0" cy="47.0" fill="rgb(0, 100, 0)" r="2.0" stroke="none" stroke-width="2.0"/>
   <polyline fill="none" points="39,47 39,57 39,64" stroke="rgb(0, 100, 0)" stroke-linecap="square" stroke-width="3.0"/>
   <polyline fill="none" points="47,65 31,65" stroke="rgb(0, 100, 0)" stroke-linecap="square" stroke-width="2.0"/>
   <polyline fill="none" points="50,70 28,70" stroke="rgb(40, 40, 255)" stroke-linecap="square" stroke-width="2.0"/>
   <polyline fill="none" points="38,77 40,75 38,73" stroke="rgb(40, 40, 255)" stroke-linecap="square" stroke-width="1.0"/>
   <rect fill="none" height="18" stroke="rgb(0, 0, 0)" stroke-linecap="square" stroke-width="2.0" width="18" x="91" y="29"/>
   <ellipse cx="99.0" cy="37.0" fill="rgb(0, 100, 0)" rx="5.5" ry="6.5" stroke="none" stroke-width="2.0"/>
   <text fill="rgb(255, 255, 255)" font-family="Monospaced" font-size="12" x="96.0" y="42.0">0</text>
   <text fill="rgb(0, 0, 255)" font-family="Monospaced" font-size="16" font-weight="bold" x="94.0" y="21.0">B</text>
   <circle cx="99.0" cy="47.0" fill="rgb(0, 100, 0)" r="2.0" stroke="none" stroke-width="2.0"/>
   <polyline fill="none" points="92,71 92,77 79,77 59,77 46,77 46,71" stroke="rgb(40, 40, 255)" stroke-linecap="square" stroke-width="3.0"/>
   <polyline fill="none" points="99,47 99,57 99,64" stroke="rgb(0, 100, 0)" stroke-linecap="square" stroke-width="3.0"/>
   <polyline fill="none" points="107,65 91,65" stroke="rgb(0, 100, 0)" stroke-linecap="square" stroke-width="2.0"/>
   <polyline fill="none" points="110,70 88,70" stroke="rgb(40, 40, 255)" stroke-linecap="square" stroke-width="2.0"/>
   <polyline fill="none" points="98,77 100,75 98,73" stroke="rgb(40, 40, 255)" stroke-linecap="square" stroke-width="1.0"/>
   <rect fill="none" height="18" stroke="rgb(0, 0, 0)" stroke-linecap="square" stroke-width="2.0" width="18" x="151" y="29"/>
   <ellipse cx="159.0" cy="37.0" fill="rgb(0, 100, 0)" rx="5.5" ry="6.5" stroke="none" stroke-width="2.0"/>
   <text fill="rgb(255, 255, 255)" font-family="Monospaced" font-size="12" x="156.0" y="42.0">0</text>
   <text fill="rgb(0, 0, 255)" font-family="Monospaced" font-size="16" font-weight="bold" x="154.0" y="21.0">C</text>
   <circle cx="159.0" cy="47.0" fill="rgb(0, 100, 0)" r="2.0" stroke="none" stroke-width="2.0"/>
   <polyline fill="none" points="166,71 166,77 179,77 189,77 199,77" stroke="rgb(0, 210, 0)" stroke-linecap="square" stroke-width="3.0"/>
   <polyline fill="none" points="152,71 152,77 139,77 119,77 106,77 106,71" stroke="rgb(40, 40, 255)" stroke-linecap="square" stroke-width="3.0"/>
   <polyline fill="none" points="159,47 159,57 159,64" stroke="rgb(0, 100, 0)" stroke-linecap="square" stroke-width="3.0"/>
   <polyline fill="none" points="167,65 151,65" stroke="rgb(0, 100, 0)" stroke-linecap="square" stroke-width="2.0"/>
   <polyline fill="none" points="170,70 148,70" stroke="rgb(40, 40, 255)" stroke-linecap="square" stroke-width="2.0"/>
   <polyline fill="none" points="158,77 160,75 158,73" stroke="rgb(40, 40, 255)" stroke-linecap="square" stroke-width="1.0"/>
   <polyline fill="none" points="32,71 32,77 19,77 14,77" stroke="rgb(0, 100, 0)" stroke-linecap="square" stroke-width="3.0"/>
   <polyline fill="none" points="13,85 13,69" stroke="rgb(0, 100, 0)" stroke-linecap="square" stroke-width="1.0"/>
   <polyline fill="none" points="10,82 10,72" stroke="rgb(0, 100, 0)" stroke-linecap="square" stroke-width="1.0"/>
   <polyline fill="none" points="7,79 7,75" stroke="rgb(0, 100, 0)" stroke-linecap="square" stroke-width="1.0"/>
   <circle cx="19.0" cy="77.0" fill="rgb(0, 100, 0)" r="2.0" stroke="none" stroke-width="1.0"/>
   <circle cx="210.0" cy="78.0" fill="none" r="9.0" stroke="rgb(0, 0, 0)" stroke-width="2.0"/>
   <text fill="rgb(0, 0, 0)" font-family="Monospaced" font-size="12" x="206.0" y="82.0">1</text>
   <text fill="rgb(0, 0, 255)" font-family="Monospaced" font-size="16" font-weight="bold" x="221.0" y="85.0">D</text>
   <circle cx="199.0" cy="77.0" fill="rgb(0, 210, 0)" r="2.0" stroke="none" stroke-width="2.0"/>
   <text fill="rgb(0, 210, 0)" font-family="SansSerif" font-size="12" x="185.0" y="35.0">1</text>
   <polyline fill="none" points="189,37 189,41" stroke="rgb(0, 210, 0)" stroke-linecap="square" stroke-width="3.0"/>
   <polyline fill="none" points="183,37 195,37" stroke="rgb(0, 210, 0)" stroke-linecap="square" stroke-width="3.0"/>
   <polyline fill="none" points="189,63 189,67 189,77" stroke="rgb(0, 210, 0)" stroke-linecap="square" stroke-width="3.0"/>
   <polyline fill="none" points="189,42 184,44 194,48 184,52 194,56 184,60 189,62" stroke="rgb(0, 0, 0)" stroke-linecap="square" stroke-width="2.0"/>
   <circle cx="189.0" cy="67.0" fill="rgb(0, 210, 0)" r="2.0" stroke="none" stroke-width="2.0"/>
</svg>
