<?xml version="1.0" encoding="UTF-8" standalone="no"?>
<svg xmlns="http://www.w3.org/2000/svg" version="1.1" viewBox="0 0 194 144">
   <circle cx="179.0" cy="97.0" fill="rgb(0, 210, 0)" r="5.0" stroke="none" stroke-width="3.0"/>
   <circle cx="59.0" cy="97.0" fill="rgb(0, 210, 0)" r="5.0" stroke="none" stroke-width="3.0"/>
   <polyline fill="none" points="13,85 13,69" stroke="rgb(0, 100, 0)" stroke-linecap="square" stroke-width="1.0"/>
   <polyline fill="none" points="10,82 10,72" stroke="rgb(0, 100, 0)" stroke-linecap="square" stroke-width="1.0"/>
   <polyline fill="none" points="7,79 7,75" stroke="rgb(0, 100, 0)" stroke-linecap="square" stroke-width="1.0"/>
   <circle cx="19.0" cy="77.0" fill="rgb(0, 100, 0)" r="2.0" stroke="none" stroke-width="1.0"/>
   <rect fill="none" height="18" stroke="rgb(0, 0, 0)" stroke-linecap="square" stroke-width="2.0" width="18" x="31" y="29"/>
   <ellipse cx="39.0" cy="37.0" fill="rgb(0, 100, 0)" rx="5.5" ry="6.5" stroke="none" stroke-width="2.0"/>
   <text fill="rgb(255, 255, 255)" font-family="Monospaced" font-size="12" x="36.0" y="42.0">0</text>
   <text fill="rgb(0, 0, 255)" font-family="Monospaced" font-size="16" font-weight="bold" x="33.0" y="21.0">A</text>
   <circle cx="39.0" cy="47.0" fill="rgb(0, 100, 0)" r="2.0" stroke="none" stroke-width="2.0"/>
   <polyline fill="none" points="32,71 32,77 19,77 14,77" stroke="rgb(0, 100, 0)" stroke-linecap="square" stroke-width="3.0"/>
   <polyline fill="none" points="39,47 39,57 39,64" stroke="rgb(0, 100, 0)" stroke-linecap="square" stroke-width="3.0"/>
   <polyline fill="none" points="47,65 31,65" stroke="rgb(0, 100, 0)" stroke-linecap="square" stroke-width="2.0"/>
   <polyline fill="none" points="50,70 28,70" stroke="rgb(40, 40, 255)" stroke-linecap="square" stroke-width="2.0"/>
   <polyline fill="none" points="38,77 40,75 38,73" stroke="rgb(40, 40, 255)" stroke-linecap="square" stroke-width="1.0"/>
   <text fill="rgb(0, 210, 0)" font-family="SansSerif" font-size="12" x="55.0" y="141.0">1</text>
   <polyline fill="none" points="59,127 59,123" stroke="rgb(0, 210, 0)" stroke-linecap="square" stroke-width="3.0"/>
   <polyline fill="none" points="65,127 53,127" stroke="rgb(0, 210, 0)" stroke-linecap="square" stroke-width="3.0"/>
   <polyline fill="none" points="59,101 59,97" stroke="rgb(0, 210, 0)" stroke-linecap="square" stroke-width="3.0"/>
   <polyline fill="none" points="59,122 64,120 54,116 64,112 54,108 64,104 59,102" stroke="rgb(0, 0, 0)" stroke-linecap="square" stroke-width="2.0"/>
   <circle cx="59.0" cy="97.0" fill="rgb(0, 210, 0)" r="2.0" stroke="none" stroke-width="2.0"/>
   <rect fill="none" height="18" stroke="rgb(0, 0, 0)" stroke-linecap="square" stroke-width="2.0" width="18" x="91" y="29"/>
   <ellipse cx="99.0" cy="37.0" fill="rgb(0, 100, 0)" rx="5.5" ry="6.5" stroke="none" stroke-width="2.0"/>
   <text fill="rgb(255, 255, 255)" font-family="Monospaced" font-size="12" x="96.0" y="42.0">0</text>
   <text fill="rgb(0, 0, 255)" font-family="Monospaced" font-size="16" font-weight="bold" x="94.0" y="21.0">B</text>
   <circle cx="99.0" cy="47.0" fill="rgb(0, 100, 0)" r="2.0" stroke="none" stroke-width="2.0"/>
   <polyline fill="none" points="99,47 99,57 99,64" stroke="rgb(0, 100, 0)" stroke-linecap="square" stroke-width="3.0"/>
   <polyline fill="none" points="107,65 91,65" stroke="rgb(0, 100, 0)" stroke-linecap="square" stroke-width="2.0"/>
   <polyline fill="none" points="110,70 88,70" stroke="rgb(40, 40, 255)" stroke-linecap="square" stroke-width="2.0"/>
   <polyline fill="none" points="98,77 100,75 98,73" stroke="rgb(40, 40, 255)" stroke-linecap="square" stroke-width="1.0"/>
   <rect fill="none" height="18" stroke="rgb(0, 0, 0)" stroke-linecap="square" stroke-width="2.0" width="18" x="151" y="29"/>
   <ellipse cx="159.0" cy="37.0" fill="rgb(0, 100, 0)" rx="5.5" ry="6.5" stroke="none" stroke-width="2.0"/>
   <text fill="rgb(255, 255, 255)" font-family="Monospaced" font-size="12" x="156.0" y="42.0">0</text>
   <text fill="rgb(0, 0, 255)" font-family="Monospaced" font-size="16" font-weight="bold" x="154.0" y="21.0">C</text>
   <circle cx="159.0" cy="47.0" fill="rgb(0, 100, 0)" r="2.0" stroke="none" stroke-width="2.0"/>
   <polyline fill="none" points="166,71 166,77 179,77 179,97 59,97 59,77 46,77 46,71" stroke="rgb(0, 210, 0)" stroke-linecap="square" stroke-width="3.0"/>
   <polyline fill="none" points="152,71 152,77 139,77 119,77 106,77 106,71" stroke="rgb(40, 40, 255)" stroke-linecap="square" stroke-width="3.0"/>
   <polyline fill="none" points="159,47 159,57 159,64" stroke="rgb(0, 100, 0)" stroke-linecap="square" stroke-width="3.0"/>
   <polyline fill="none" points="167,65 151,65" stroke="rgb(0, 100, 0)" stroke-linecap="square" stroke-width="2.0"/>
   <polyline fill="none" points="170,70 148,70" stroke="rgb(40, 40, 255)" stroke-linecap="square" stroke-width="2.0"/>
   <polyline fill="none" points="158,77 160,75 158,73" stroke="rgb(40, 40, 255)" stroke-linecap="square" stroke-width="1.0"/>
   <polyline fill="none" points="92,71 92,77 79,77 74,77" stroke="rgb(0, 100, 0)" stroke-linecap="square" stroke-width="3.0"/>
   <polyline fill="none" points="73,85 73,69" stroke="rgb(0, 100, 0)" stroke-linecap="square" stroke-width="1.0"/>
   <polyline fill="none" points="70,82 70,72" stroke="rgb(0, 100, 0)" stroke-linecap="square" stroke-width="1.0"/>
   <polyline fill="none" points="67,79 67,75" stroke="rgb(0, 100, 0)" stroke-linecap="square" stroke-width="1.0"/>
   <circle cx="79.0" cy="77.0" fill="rgb(0, 100, 0)" r="2.0" stroke="none" stroke-width="1.0"/>
   <circle cx="180.0" cy="108.0" fill="none" r="9.0" stroke="rgb(0, 0, 0)" stroke-width="2.0"/>
   <text fill="rgb(0, 0, 0)" font-family="Monospaced" font-size="12" x="176.0" y="112.0">1</text>
   <text fill="rgb(0, 0, 255)" font-family="Monospaced" font-size="16" font-weight="bold" x="173.0" y="135.0">D</text>
   <circle cx="179.0" cy="97.0" fill="rgb(0, 210, 0)" r="2.0" stroke="none" stroke-width="2.0"/>
</svg>
